<?xml version="1.0" encoding="utf-8"?>
<!-- Generator: Adobe Illustrator 28.0.0, SVG Export Plug-In . SVG Version: 6.00 Build 0)  -->
<svg version="1.1" id="Layer_1" xmlns="http://www.w3.org/2000/svg" xmlns:xlink="http://www.w3.org/1999/xlink" x="0px" y="0px"
	 viewBox="0 0 545.2 316.2" style="enable-background:new 0 0 545.2 316.2;" xml:space="preserve">
<style type="text/css">
	.st0{fill:#EFC01A;}
	.st1{fill:#192748;}
	.st2{fill:none;stroke:#EFC01A;stroke-width:3.7685;stroke-miterlimit:10;}
	.st3{fill:none;stroke:#192748;stroke-width:3.7685;stroke-miterlimit:10;}
	.st4{fill:none;}
	.st5{fill:#1D2749;}
	.st6{fill:#F3C416;}
	.st7{fill:#1D2749;stroke:#F3C416;stroke-width:2.1173;stroke-linecap:round;stroke-linejoin:round;stroke-miterlimit:10;}
	.st8{clip-path:url(#SVGID_00000043440922539418595290000010886200156766575237_);}
	.st9{clip-path:url(#SVGID_00000092417697628947328050000002198983049769843085_);}
	.st10{fill:none;stroke:#EFC01A;stroke-width:4.7525;stroke-miterlimit:10;}
	.st11{fill:none;stroke:#192748;stroke-width:4.7525;stroke-miterlimit:10;}
	.st12{fill:#1D2749;stroke:#F3C416;stroke-width:2.6701;stroke-linecap:round;stroke-linejoin:round;stroke-miterlimit:10;}
</style>
<g>
	<rect x="61.2" y="112" class="st0" width="102" height="91.5"/>
	<path class="st1" d="M158.3,107.1h-92c-2.8,0-5.1,2.3-5.1,5.1V204c0,2.8,2.3,5.1,5.1,5.1h91.8c2.8,0,5.1-2.3,5.1-5.1v-91.8
		c0-2.8-2.3-5.1-5.1-5.1 M72.9,116.9H84l-11.1,11.2L72.9,116.9z M72.9,198.6v-11.2L84,198.6H72.9z M95.6,198.6l-22.7-22.9l0.6-17.9
		V140l22.1-23h17.8L73,157.9l40.4,40.8H95.6z M125.1,198l0,0.6h-0.3l-40.5-40.9l40.5-40.9h15.6l11.1,0l-12.8,12.9l-8.6,0l-28,28.2
		l28,28.3l9.5,0l11.6,11.7H125.1z"/>
	<g>
		<g>
			<polygon class="st1" points="216.4,158.7 200.8,143.6 215.6,128.6 220.7,128.6 226.5,123.1 210.7,123.1 192.5,141.5 192.5,123.1 
				184.5,123.1 184.5,164.2 192.5,164.2 192.5,145.5 211.7,164.2 226.5,164.2 220.7,158.7 			"/>
			<polygon class="st1" points="317.9,127.4 332.6,127.4 332.6,164.2 337.5,164.2 337.5,127.4 352.3,127.4 352.3,123.1 317.9,123.1 
							"/>
			<path class="st1" d="M361.5,140.5v-6.3h-4.9v30.1h4.9V148c0-5.5,4.4-10,9.9-10c1.1,0,2.1,0.1,3,0.3v-4.2c-0.7-0.3-1.7-0.5-3-0.5
				C366.7,133.7,363.1,136.4,361.5,140.5z"/>
			<path class="st1" d="M403.9,139.1c-1.8-4-6-6.3-11.1-6.3c-8.5,0-14.8,7-14.8,15.8s6.3,15.7,14.8,15.7c5.1,0,9.3-2.2,11.1-6.3v6.2
				h4.9v-30.7h-4.9V139.1z M393.4,160.2c-6.4,0-10.9-5.1-10.9-11.6c0-6.6,4.4-11.7,10.9-11.7c6,0,10.8,4.3,10.8,11.7
				C404.2,155.9,399.5,160.2,393.4,160.2z"/>
			<path class="st1" d="M441.4,139.1c-1.7-4-5.9-6.3-11-6.3c-8.5,0-14.8,7-14.8,15.8s6.3,15.7,14.8,15.7c5.1,0,9.3-2.2,11-6.3v6.2
				h4.9v-42.4h-4.9V139.1z M431,160.2c-6.4,0-10.9-5.1-10.9-11.6c0-6.6,4.4-11.7,10.9-11.7c6,0,10.8,4.3,10.8,11.7
				C441.8,155.9,437,160.2,431,160.2z"/>
			<path class="st1" d="M483.7,147.4c0-8.7-6.4-14.8-15.2-14.8c-8.8,0-15.3,6.9-15.3,15.8c0,8.8,6.7,15.7,16,15.7
				c5.8,0,10.8-2.5,13.5-6.3l-3.6-2.4c-2.1,2.9-5.7,4.7-9.9,4.7c-6.2,0-10.7-4-11.4-9.9h25.8C483.6,149.1,483.7,148.2,483.7,147.4z
				 M457.7,146.4c0.9-5.9,5-9.8,10.7-9.8c3.1,0,5.6,0.9,7.6,2.7c2,1.8,3,4.2,3.1,7.1H457.7z"/>
			<polygon class="st1" points="251.7,129.8 259.1,122.5 252.8,122.4 245.4,129.8 			"/>
			<path class="st1" d="M242.2,157.5c-7.5,0-12.7-5.9-12.7-13.6c0-6.4,3.6-11.5,9.1-13.1l7.7-7.7l-4.1,0
				c-11.5-0.2-20.3,8.9-20.2,20.6c-0.2,11.6,8.7,20.8,20.2,20.6h18.9l-5.8-6.8H242.2z"/>
			<polygon class="st1" points="287.6,138.2 274.5,123.1 267.1,123.1 265.3,123.1 258.6,129.8 266.3,129.8 266.3,164.2 273.6,164.2 
				273.6,134.6 283.9,146.4 290.6,146.4 301.9,134.9 301.9,153.2 309.3,145.8 309.3,123.1 301.9,123.1 			"/>
			<polygon class="st1" points="301.9,164.2 309.3,164.2 309.3,152.4 301.9,160 			"/>
		</g>
		<g>
			<g>
				<path class="st1" d="M196.6,193.7h-2.2l-5.8-7.4l-1.7,1.4v6h-1.8v-15.4h1.8v7.6l7.2-7.6h2.2L190,185L196.6,193.7z"/>
				<path class="st1" d="M213.8,185.9c0,2.4-0.6,4.3-1.8,5.7c-1.2,1.4-2.9,2.1-5.1,2.1c-2.2,0-3.9-0.7-5.1-2
					c-1.2-1.4-1.8-3.3-1.8-5.8c0-2.5,0.6-4.4,1.8-5.7c1.2-1.4,2.9-2,5.2-2c2.2,0,3.9,0.7,5.1,2.1
					C213.2,181.6,213.8,183.5,213.8,185.9z M201.8,185.9c0,2,0.4,3.6,1.3,4.7s2.1,1.6,3.8,1.6c1.7,0,2.9-0.5,3.8-1.6
					c0.9-1.1,1.3-2.6,1.3-4.7c0-2-0.4-3.6-1.3-4.6c-0.9-1-2.1-1.6-3.8-1.6c-1.7,0-2.9,0.5-3.8,1.6
					C202.2,182.4,201.8,183.9,201.8,185.9z"/>
				<path class="st1" d="M231.2,193.7h-1.8v-7.4h-8v7.4h-1.8v-15.4h1.8v6.1h8v-6.1h1.8V193.7z"/>
				<path class="st1" d="M237.4,193.7v-15.4h1.8v13.5h6.8v1.8H237.4z"/>
				<path class="st1" d="M259.5,193.7h-8.6v-15.4h8.6v1.8h-6.8v4.3h6.1v1.8h-6.1v5.5h6.8V193.7z"/>
				<path class="st1" d="M279.3,179.8c-1.7,0-3,0.6-3.9,1.7c-1,1.1-1.4,2.6-1.4,4.5c0,2,0.5,3.5,1.4,4.6c0.9,1.1,2.2,1.6,4,1.6
					c1.1,0,2.3-0.2,3.6-0.6v1.5c-1,0.4-2.3,0.6-3.9,0.6c-2.2,0-3.9-0.7-5.1-2c-1.2-1.3-1.8-3.3-1.8-5.8c0-1.6,0.3-2.9,0.9-4.1
					c0.6-1.2,1.4-2.1,2.5-2.7c1.1-0.6,2.4-0.9,3.9-0.9c1.6,0,3,0.3,4.2,0.9l-0.7,1.5C281.5,180,280.4,179.8,279.3,179.8z"/>
				<path class="st1" d="M298.4,193.7l-1.9-4.9h-6.2l-1.9,4.9h-1.7l6-15.4h1.5l6,15.4H298.4z M295.9,187l-1.8-4.7
					c-0.2-0.6-0.5-1.3-0.7-2.2c-0.2,0.7-0.4,1.4-0.7,2.2L291,187H295.9z"/>
				<path class="st1" d="M314,182.8c0,1.5-0.5,2.7-1.6,3.5c-1,0.8-2.6,1.2-4.5,1.2h-1.7v6.1h-1.8v-15.4h3.9
					C312.1,178.4,314,179.8,314,182.8z M306.2,186.4h1.6c1.6,0,2.7-0.3,3.4-0.8c0.7-0.5,1-1.3,1-2.4c0-1-0.3-1.7-1-2.2
					c-0.7-0.5-1.7-0.7-3.1-0.7h-2V186.4z"/>
				<path class="st1" d="M319.7,193.7v-15.4h1.8v15.4H319.7z"/>
				<path class="st1" d="M332.6,193.7h-1.8v-13.5h-4.3v-1.8h11.1v1.8h-4.9V193.7z"/>
				<path class="st1" d="M351.8,193.7l-1.9-4.9h-6.2l-1.9,4.9H340l6-15.4h1.5l6,15.4H351.8z M349.2,187l-1.8-4.7
					c-0.2-0.6-0.5-1.3-0.7-2.2c-0.2,0.7-0.4,1.4-0.7,2.2l-1.8,4.7H349.2z"/>
				<path class="st1" d="M357.8,193.7v-15.4h1.8v13.5h6.8v1.8H357.8z"/>
				<path class="st1" d="M385.9,193.7l-5.1-13.5h-0.1c0.1,1,0.1,2.2,0.4,3.7v9.8h-1.8v-15.4h2.6l4.7,12.3h0.1l4.8-12.3h2.6v15.4
					h-1.8v-9.8c0-1.1,0.1-2.4,0.2-3.7h-0.1l-5.4,13.5H385.9z"/>
				<path class="st1" d="M410.3,193.7l-1.9-4.9h-6.2l-1.9,4.9h-1.7l6-15.4h1.5l6,15.4H410.3z M407.8,187l-1.8-4.7
					c-0.2-0.6-0.5-1.3-0.7-2.2c-0.2,0.7-0.4,1.4-0.7,2.2l-1.8,4.7H407.8z"/>
				<path class="st1" d="M418.6,187.6v6.1h-1.8v-15.4h4.3c1.9,0,3.4,0.4,4.3,1.1c0.9,0.7,1.4,1.8,1.4,3.3c0,2-1.1,3.4-3.2,4.1
					l4.3,6.9h-2.7l-3.6-6.1H418.6z M418,185.7h2.3c1.2,0,2.1-0.2,2.6-0.7c0.6-0.5,0.8-1.2,0.8-2.1c0-1-0.3-1.6-0.8-2.1
					c-0.6-0.4-1.5-0.6-2.7-0.6H418V185.7z"/>
				<path class="st1" d="M443.6,193.7h-2.2l-5.8-7.4l-1.7,1.4v6h-1.8v-15.4h1.8v7.6l7.2-7.6h2.2L437,185L443.6,193.7z"/>
				<path class="st1" d="M456.1,193.7h-8.6v-15.4h8.6v1.8h-6.8v4.3h6.1v1.8h-6.1v5.5h6.8V193.7z"/>
				<path class="st1" d="M466.5,193.7h-1.8v-13.5h-4.9v-1.8h11.1v1.8h-4.3V193.7z"/>
				<path class="st1" d="M484,189.5c0,1.3-0.5,2.4-1.4,3.1c-1,0.7-2.3,1.1-3.9,1.1c-1.8,0-3.2-0.2-4.1-0.7v-1.7
					c0.6,0.3,1.3,0.5,2,0.6c0.7,0.2,1.5,0.2,2.2,0.2c1.2,0,2.1-0.2,2.6-0.7c0.6-0.4,0.9-1.1,0.9-1.9c0-0.5-0.1-1-0.3-1.3
					c-0.2-0.3-0.6-0.6-1.1-0.9s-1.2-0.6-2.2-1c-1.4-0.5-2.4-1.1-3-1.8c-0.6-0.7-0.9-1.6-0.9-2.7c0-1.2,0.4-2.1,1.3-2.8
					c0.9-0.7,2-1,3.5-1c1.5,0,2.9,0.3,4.1,0.8l-0.5,1.5c-1.2-0.5-2.5-0.8-3.6-0.8c-0.9,0-1.7,0.2-2.2,0.6c-0.5,0.4-0.8,1-0.8,1.7
					c0,0.5,0.1,1,0.3,1.3c0.2,0.3,0.5,0.6,1,0.9c0.5,0.3,1.2,0.6,2.1,0.9c1.6,0.6,2.7,1.2,3.3,1.8C483.7,187.6,484,188.5,484,189.5z
					"/>
			</g>
		</g>
	</g>
</g>
</svg>
