<svg xmlns="http://www.w3.org/2000/svg" xml:space="preserve" id="Layer_1" x="0" y="0" viewBox="0 0 545.2 316.2"><style>.st1{fill:#192748}</style><path d="M61.2 112h102v91.5h-102z" style="fill:#efc01a"/><path d="M158.3 107.1h-92c-2.8 0-5.1 2.3-5.1 5.1V204c0 2.8 2.3 5.1 5.1 5.1h91.8c2.8 0 5.1-2.3 5.1-5.1v-91.8c0-2.8-2.3-5.1-5.1-5.1m-85.2 9.8H84l-11.1 11.2zm0 81.7v-11.2L84 198.6zm22.7 0-22.7-22.9.6-17.9V140l22.1-23h17.8L73 157.9l40.4 40.8H95.6zm29.5-.6v.6h-.3l-40.5-40.9 40.5-40.9h26.7l-12.8 12.9h-8.6l-28 28.2 28 28.3h9.5l11.6 11.7h-26.1zM216.4 158.7l-15.6-15.1 14.8-15h5.1l5.8-5.5h-15.8l-18.2 18.4v-18.4h-8v41.1h8v-18.7l19.2 18.7h14.8l-5.8-5.5zM317.9 127.4h14.7v36.8h4.9v-36.8h14.8v-4.3h-34.4zM361.5 140.5v-6.3h-4.9v30.1h4.9V148c0-5.5 4.4-10 9.9-10q1.65 0 3 .3v-4.2c-.7-.3-1.7-.5-3-.5-4.7.1-8.3 2.8-9.9 6.9M403.9 139.1c-1.8-4-6-6.3-11.1-6.3-8.5 0-14.8 7-14.8 15.8s6.3 15.7 14.8 15.7c5.1 0 9.3-2.2 11.1-6.3v6.2h4.9v-30.7h-4.9zm-10.5 21.1c-6.4 0-10.9-5.1-10.9-11.6 0-6.6 4.4-11.7 10.9-11.7 6 0 10.8 4.3 10.8 11.7 0 7.3-4.7 11.6-10.8 11.6M441.4 139.1c-1.7-4-5.9-6.3-11-6.3-8.5 0-14.8 7-14.8 15.8s6.3 15.7 14.8 15.7c5.1 0 9.3-2.2 11-6.3v6.2h4.9v-42.4h-4.9zM431 160.2c-6.4 0-10.9-5.1-10.9-11.6 0-6.6 4.4-11.7 10.9-11.7 6 0 10.8 4.3 10.8 11.7 0 7.3-4.8 11.6-10.8 11.6M483.7 147.4c0-8.7-6.4-14.8-15.2-14.8s-15.3 6.9-15.3 15.8c0 8.8 6.7 15.7 16 15.7 5.8 0 10.8-2.5 13.5-6.3l-3.6-2.4c-2.1 2.9-5.7 4.7-9.9 4.7-6.2 0-10.7-4-11.4-9.9h25.8c0-1.1.1-2 .1-2.8m-26-1c.9-5.9 5-9.8 10.7-9.8 3.1 0 5.6.9 7.6 2.7s3 4.2 3.1 7.1zM251.7 129.8l7.4-7.3-6.3-.1-7.4 7.4z" class="st1"/><path d="M242.2 157.5c-7.5 0-12.7-5.9-12.7-13.6 0-6.4 3.6-11.5 9.1-13.1l7.7-7.7h-4.1c-11.5-.2-20.3 8.9-20.2 20.6-.2 11.6 8.7 20.8 20.2 20.6h18.9l-5.8-6.8zM287.6 138.2l-13.1-15.1h-9.2l-6.7 6.7h7.7v34.4h7.3v-29.6l10.3 11.8h6.7l11.3-11.5v18.3l7.4-7.4v-22.7h-7.4zM301.9 164.2h7.4v-11.8l-7.4 7.6zM196.6 193.7h-2.2l-5.8-7.4-1.7 1.4v6h-1.8v-15.4h1.8v7.6l7.2-7.6h2.2L190 185zM213.8 185.9q0 3.6-1.8 5.7t-5.1 2.1c-2.2 0-3.9-.7-5.1-2-1.2-1.4-1.8-3.3-1.8-5.8q0-3.75 1.8-5.7c1.2-1.4 2.9-2 5.2-2q3.3 0 5.1 2.1c1.1 1.3 1.7 3.2 1.7 5.6m-12 0c0 2 .4 3.6 1.3 4.7s2.1 1.6 3.8 1.6 2.9-.5 3.8-1.6 1.3-2.6 1.3-4.7c0-2-.4-3.6-1.3-4.6s-2.1-1.6-3.8-1.6-2.9.5-3.8 1.6-1.3 2.6-1.3 4.6M231.2 193.7h-1.8v-7.4h-8v7.4h-1.8v-15.4h1.8v6.1h8v-6.1h1.8zM237.4 193.7v-15.4h1.8v13.5h6.8v1.8h-8.6zM259.5 193.7h-8.6v-15.4h8.6v1.8h-6.8v4.3h6.1v1.8h-6.1v5.5h6.8zM279.3 179.8c-1.7 0-3 .6-3.9 1.7-1 1.1-1.4 2.6-1.4 4.5 0 2 .5 3.5 1.4 4.6s2.2 1.6 4 1.6q1.65 0 3.6-.6v1.5q-1.5.6-3.9.6c-2.2 0-3.9-.7-5.1-2s-1.8-3.3-1.8-5.8c0-1.6.3-2.9.9-4.1s1.4-2.1 2.5-2.7q1.65-.9 3.9-.9 2.4 0 4.2.9l-.7 1.5c-1.5-.6-2.6-.8-3.7-.8M298.4 193.7l-1.9-4.9h-6.2l-1.9 4.9h-1.7l6-15.4h1.5l6 15.4zm-2.5-6.7-1.8-4.7c-.2-.6-.5-1.3-.7-2.2-.2.7-.4 1.4-.7 2.2L291 187zM314 182.8c0 1.5-.5 2.7-1.6 3.5-1 .8-2.6 1.2-4.5 1.2h-1.7v6.1h-1.8v-15.4h3.9c3.8.2 5.7 1.6 5.7 4.6m-7.8 3.6h1.6c1.6 0 2.7-.3 3.4-.8s1-1.3 1-2.4c0-1-.3-1.7-1-2.2s-1.7-.7-3.1-.7h-2v6.1zM319.7 193.7v-15.4h1.8v15.4zM332.6 193.7h-1.8v-13.5h-4.3v-1.8h11.1v1.8h-4.9v13.5zM351.8 193.7l-1.9-4.9h-6.2l-1.9 4.9H340l6-15.4h1.5l6 15.4zm-2.6-6.7-1.8-4.7c-.2-.6-.5-1.3-.7-2.2-.2.7-.4 1.4-.7 2.2l-1.8 4.7zM357.8 193.7v-15.4h1.8v13.5h6.8v1.8h-8.6zM385.9 193.7l-5.1-13.5h-.1c.1 1 .1 2.2.4 3.7v9.8h-1.8v-15.4h2.6l4.7 12.3h.1l4.8-12.3h2.6v15.4h-1.8v-9.8c0-1.1.1-2.4.2-3.7h-.1l-5.4 13.5zM410.3 193.7l-1.9-4.9h-6.2l-1.9 4.9h-1.7l6-15.4h1.5l6 15.4zm-2.5-6.7-1.8-4.7c-.2-.6-.5-1.3-.7-2.2-.2.7-.4 1.4-.7 2.2l-1.8 4.7zM418.6 187.6v6.1h-1.8v-15.4h4.3c1.9 0 3.4.4 4.3 1.1s1.4 1.8 1.4 3.3c0 2-1.1 3.4-3.2 4.1l4.3 6.9h-2.7l-3.6-6.1zm-.6-1.9h2.3c1.2 0 2.1-.2 2.6-.7.6-.5.8-1.2.8-2.1 0-1-.3-1.6-.8-2.1q-.9-.6-2.7-.6H418zM443.6 193.7h-2.2l-5.8-7.4-1.7 1.4v6h-1.8v-15.4h1.8v7.6l7.2-7.6h2.2L437 185zM456.1 193.7h-8.6v-15.4h8.6v1.8h-6.8v4.3h6.1v1.8h-6.1v5.5h6.8zM466.5 193.7h-1.8v-13.5h-4.9v-1.8h11.1v1.8h-4.3v13.5zM484 189.5c0 1.3-.5 2.4-1.4 3.1-1 .7-2.3 1.1-3.9 1.1-1.8 0-3.2-.2-4.1-.7v-1.7c.6.3 1.3.5 2 .6.7.2 1.5.2 2.2.2 1.2 0 2.1-.2 2.6-.7.6-.4.9-1.1.9-1.9 0-.5-.1-1-.3-1.3s-.6-.6-1.1-.9-1.2-.6-2.2-1q-2.1-.75-3-1.8t-.9-2.7c0-1.2.4-2.1 1.3-2.8s2-1 3.5-1 2.9.3 4.1.8l-.5 1.5c-1.2-.5-2.5-.8-3.6-.8-.9 0-1.7.2-2.2.6s-.8 1-.8 1.7c0 .5.1 1 .3 1.3s.5.6 1 .9q.75.45 2.1.9 2.4.9 3.3 1.8c.4.9.7 1.8.7 2.8" class="st1"/></svg>