<?xml version="1.0" encoding="UTF-8"?><svg id="_图层_2" xmlns="http://www.w3.org/2000/svg" viewBox="0 0 105.77 105.77"><defs><style>.cls-1{fill:#efc01a;stroke-width:0px;}.cls-2{fill:none;stroke:#efc01a;stroke-miterlimit:10;stroke-width:3.77px;}</style></defs><g id="Layer_1"><polygon class="cls-1" points="11.28 71.78 35.18 95.98 53.98 95.98 11.28 52.88 11.28 71.78"/><polygon class="cls-1" points="11.28 9.78 11.28 21.58 22.98 9.78 11.28 9.78"/><polygon class="cls-1" points="11.28 95.98 22.98 95.98 11.28 84.08 11.28 95.98"/><polygon class="cls-1" points="35.18 9.78 11.28 33.88 11.28 52.88 53.98 9.78 35.18 9.78"/><polygon class="cls-1" points="81.28 82.68 71.58 82.68 42.08 52.88 71.58 23.08 80.88 23.08 94.18 9.78 82.68 9.78 65.98 9.78 23.28 52.88 65.98 95.98 66.38 95.98 66.38 95.98 94.48 95.98 81.28 82.68"/><path class="cls-2" d="m98.78,1.88H6.98C4.18,1.88,1.88,4.18,1.88,6.98v91.8c0,2.8,2.3,5.1,5.1,5.1h91.8c2.8,0,5.1-2.3,5.1-5.1V6.98c0-2.8-2.3-5.1-5.1-5.1"/></g></svg>